<?xml version="1.0" encoding="UTF-8" standalone="no"?>
<svg
   class="gjs-block-svg"
   viewBox="0 0 24 24"
   version="1.1"
   id="svg8"
   sodipodi:docname="grid.svg"
   inkscape:version="1.1 (c68e22c387, 2021-05-23)"
   xmlns:inkscape="http://www.inkscape.org/namespaces/inkscape"
   xmlns:sodipodi="http://sodipodi.sourceforge.net/DTD/sodipodi-0.dtd"
   xmlns="http://www.w3.org/2000/svg"
   xmlns:svg="http://www.w3.org/2000/svg">
  <defs
     id="defs12" />
  <sodipodi:namedview
     id="namedview10"
     pagecolor="#ffffff"
     bordercolor="#666666"
     borderopacity="1.0"
     inkscape:pageshadow="2"
     inkscape:pageopacity="0.0"
     inkscape:pagecheckerboard="0"
     showgrid="false"
     inkscape:zoom="33.833333"
     inkscape:cx="11.985222"
     inkscape:cy="12.014778"
     inkscape:window-width="1920"
     inkscape:window-height="1001"
     inkscape:window-x="-9"
     inkscape:window-y="-9"
     inkscape:window-maximized="1"
     inkscape:current-layer="svg8"
     showguides="true"
     inkscape:guide-bbox="true">
    <sodipodi:guide
       position="3,13"
       orientation="1,0"
       id="guide1157" />
    <sodipodi:guide
       position="21.044335,11.674877"
       orientation="1,0"
       id="guide1159" />
  </sodipodi:namedview>
  <path
     class="gjs-block-svg-path"
     d="M22,5.5 C22,5.2 21.5,5 20.75,5 L3.25,5 C2.5,5 2,5.2 2,5.5 L2,8.5 C2,8.8 2.5,9 3.25,9 L20.75,9 C21.5,9 22,8.8 22,8.5 L22,5.5 Z M21,8 L3,8 L3,6 L21,6 L21,8 Z"
     fill-rule="nonzero"
     id="path2" />
  <path
     class="gjs-block-svg-path"
     d="M22,10.5 C22,10.2 21.5,10 20.75,10 L3.25,10 C2.5,10 2,10.2 2,10.5 L2,13.5 C2,13.8 2.5,14 3.25,14 L20.75,14 C21.5,14 22,13.8 22,13.5 L22,10.5 Z M21,13 L3,13 L3,11 L21,11 L21,13 Z"
     fill-rule="nonzero"
     id="path4" />
  <rect
     class="gjs-block-svg-path"
     x="2"
     y="15"
     width="10"
     height="3"
     rx="0.5"
     id="rect6" />
  <rect
     style="fill:#00ff00;stroke-width:1.02566"
     id="rect956"
     width="20.015322"
     height="4.0413132"
     x="1.9923391"
     y="-11.082626"
     ry="0.62990338"
     transform="rotate(90)" />
  <rect
     style="fill:#0000ff;stroke-width:1.02566"
     id="rect1137"
     width="20.015322"
     height="4.0413132"
     x="1.9923391"
     y="-7.0413132"
     ry="0.62990338"
     transform="rotate(90)" />
</svg>
